FILE "Surgical Strike (1995)(Code Monkeys - Sega)(US).img" BINARY
  TRACK 01 MODE1/2352
    INDEX 01 00:00:00
  TRACK 02 AUDIO
    PREGAP 00:02:00
    INDEX 01 42:04:50
  TRACK 03 AUDIO
    INDEX 00 46:09:48
    INDEX 01 46:11:48
